<?xml version="1.0" encoding="iso-8859-1"?>
<!-- Generator: Adobe Illustrator 19.0.0, SVG Export Plug-In . SVG Version: 6.00 Build 0)  -->
<svg version="1.1" id="Capa_1" xmlns="http://www.w3.org/2000/svg" xmlns:xlink="http://www.w3.org/1999/xlink" x="0px" y="0px"
	 viewBox="0 0 512 512" style="enable-background:new 0 0 512 512;" xml:space="preserve">
<g>
	<g>
		<path d="M298.42,120c1.665-4.695,2.58-9.742,2.58-15c0-24.813-20.187-45-45-45s-45,20.187-45,45c0,5.258,0.915,10.305,2.58,15H61
			v82.209l150,120V392h90v-69.791l150-120V120H298.42z M256,90c8.271,0,15,6.729,15,15s-6.729,15-15,15s-15-6.729-15-15
			S247.729,90,256,90z M271,307.791V362h-30v-54.209L118.762,210h274.476L271,307.791z M421,180H91v-30h330V180z"/>
	</g>
</g>
<g>
	<g>
		<path d="M136,0c-24.813,0-45,20.187-45,45s20.187,45,45,45s45-20.187,45-45S160.813,0,136,0z M136,60c-8.271,0-15-6.729-15-15
			s6.729-15,15-15s15,6.729,15,15S144.271,60,136,60z"/>
	</g>
</g>
<g>
	<g>
		<path d="M376,0c-24.813,0-45,20.187-45,45s20.187,45,45,45s45-20.187,45-45S400.813,0,376,0z M376,60c-8.271,0-15-6.729-15-15
			s6.729-15,15-15s15,6.729,15,15S384.271,60,376,60z"/>
	</g>
</g>
<g>
	<g>
		<path d="M256,422c-24.813,0-45,20.187-45,45s20.187,45,45,45s45-20.187,45-45S280.813,422,256,422z M256,482
			c-8.271,0-15-6.729-15-15s6.729-15,15-15s15,6.729,15,15S264.271,482,256,482z"/>
	</g>
</g>
<g>
</g>
<g>
</g>
<g>
</g>
<g>
</g>
<g>
</g>
<g>
</g>
<g>
</g>
<g>
</g>
<g>
</g>
<g>
</g>
<g>
</g>
<g>
</g>
<g>
</g>
<g>
</g>
<g>
</g>
</svg>
